<svg width="79" height="35" viewBox="0 0 79 35" fill="none" xmlns="http://www.w3.org/2000/svg">
<path d="M1.99666 12.5897C2.32944 12.8524 2.89866 13.2114 3.70433 13.6668C4.52751 14.1222 5.30691 14.3499 6.04252 14.3499C6.79565 14.3499 7.17221 14.0609 7.17221 13.4829C7.17221 13.2202 7.06713 12.9925 6.85695 12.7998C6.64678 12.5897 6.26146 12.3532 5.70099 12.0905C5.14052 11.8278 4.72017 11.6264 4.43994 11.4863C4.15971 11.3286 3.78315 11.0834 3.31025 10.7506C2.85487 10.4003 2.50458 10.0413 2.25938 9.6735C1.5588 8.67517 1.2085 7.40536 1.2085 5.86408C1.2085 4.3228 1.77773 3.02672 2.91617 1.97585C4.07214 0.907457 5.57839 0.373262 7.43493 0.373262C8.69598 0.373262 9.8607 0.513379 10.9291 0.793612C11.9975 1.05633 12.5492 1.40662 12.5842 1.84449C12.5842 1.89703 12.5842 1.94957 12.5842 2.00212C12.5842 2.61513 12.3916 3.39452 12.0062 4.34031C11.6209 5.26858 11.3494 5.78526 11.1918 5.89035C10.0709 5.31237 9.06379 5.02338 8.17054 5.02338C7.29482 5.02338 6.85695 5.33864 6.85695 5.96917C6.85695 6.35449 7.18097 6.69602 7.82901 6.99377C7.96913 7.06383 8.17054 7.16016 8.43326 7.28276C8.69598 7.40536 8.99373 7.55423 9.3265 7.72938C9.6768 7.88701 10.0446 8.09718 10.4299 8.3599C10.8328 8.60511 11.2619 8.93788 11.7172 9.35823C12.6455 10.234 13.1096 11.3899 13.1096 12.8261C13.1096 14.7002 12.593 16.2327 11.5596 17.4237C10.5263 18.6147 8.93243 19.2277 6.77814 19.2627C5.72726 19.2627 4.77272 19.1751 3.9145 19C3.07381 18.8249 2.33819 18.4833 1.70767 17.9754C1.07715 17.4675 0.761883 16.8545 0.761883 16.1364C0.761883 15.4183 0.893243 14.7089 1.15596 14.0083C1.41868 13.2903 1.69891 12.8174 1.99666 12.5897ZM21.9961 18.5797C21.9961 18.9299 21.1291 19.1051 19.3952 19.1051C17.6612 19.1051 16.7943 18.9299 16.7943 18.5797V5.39119H13.6417C13.3439 5.39119 13.1337 4.98835 13.0111 4.18268C12.9586 3.79736 12.9323 3.40328 12.9323 3.00045C12.9323 2.59761 12.9586 2.20353 13.0111 1.81821C13.1337 1.01254 13.3439 0.609709 13.6417 0.609709H25.0699C25.3677 0.609709 25.5778 1.01254 25.7004 1.81821C25.753 2.20353 25.7792 2.59761 25.7792 3.00045C25.7792 3.40328 25.753 3.79736 25.7004 4.18268C25.5778 4.98835 25.3677 5.39119 25.0699 5.39119H21.9961V18.5797ZM31.1112 18.6322C31.1112 18.9124 30.2793 19.0525 28.6154 19.0525C26.934 19.0525 26.0933 18.9212 26.0933 18.6585V1.52922C26.0933 0.916214 26.4173 0.609709 27.0653 0.609709H32.0833C36.6896 0.609709 38.9928 2.40495 38.9928 5.99544C38.9928 7.08134 38.7826 8.07091 38.3622 8.96416C37.9419 9.83988 37.3464 10.5405 36.5757 11.0659L39.886 16.583C39.7459 17.0033 39.2905 17.485 38.5199 18.0279C37.469 18.7811 36.602 19.1576 35.9189 19.1576C35.2359 19.1576 34.728 18.9124 34.3952 18.422L31.9256 12.6685H31.1112V18.6322ZM31.1112 5.25983V9.2006H31.2426C32.9064 9.2006 33.7384 8.50878 33.7384 7.12513C33.7384 6.4946 33.572 6.03047 33.2392 5.73272C32.924 5.41746 32.3985 5.25983 31.6629 5.25983H31.1112ZM48.9457 7.91328C49.2785 7.91328 49.4448 8.52629 49.4448 9.75231C49.4448 10.1201 49.4011 10.558 49.3135 11.0659C49.2434 11.5563 49.1033 11.8015 48.8931 11.8015H45.5566V14.4287H50.3906C50.6884 14.4287 50.8898 14.814 50.9949 15.5847C51.0474 15.9174 51.0737 16.2765 51.0737 16.6618C51.0737 17.0296 51.0212 17.5113 50.9161 18.1068C50.811 18.7023 50.6358 19 50.3906 19H41.4057C40.7401 19 40.4073 18.7285 40.4073 18.1856V1.29278C40.4073 0.837398 40.6087 0.609709 41.0116 0.609709H50.4169C50.7847 0.609709 50.9686 1.38911 50.9686 2.9479C50.9686 4.48919 50.7847 5.25983 50.4169 5.25983H45.5566V7.91328H48.9457ZM52.8645 12.5897C53.1973 12.8524 53.7665 13.2114 54.5722 13.6668C55.3953 14.1222 56.1747 14.3499 56.9104 14.3499C57.6635 14.3499 58.04 14.0609 58.04 13.4829C58.04 13.2202 57.935 12.9925 57.7248 12.7998C57.5146 12.5897 57.1293 12.3532 56.5688 12.0905C56.0084 11.8278 55.588 11.6264 55.3078 11.4863C55.0275 11.3286 54.651 11.0834 54.1781 10.7506C53.7227 10.4003 53.3724 10.0413 53.1272 9.6735C52.4266 8.67517 52.0763 7.40536 52.0763 5.86408C52.0763 4.3228 52.6456 3.02672 53.784 1.97585C54.94 0.907457 56.4462 0.373262 58.3028 0.373262C59.5638 0.373262 60.7285 0.513379 61.7969 0.793612C62.8653 1.05633 63.417 1.40662 63.452 1.84449C63.452 1.89703 63.452 1.94957 63.452 2.00212C63.452 2.61513 63.2594 3.39452 62.8741 4.34031C62.4887 5.26858 62.2173 5.78526 62.0596 5.89035C60.9387 5.31237 59.9316 5.02338 59.0384 5.02338C58.1626 5.02338 57.7248 5.33864 57.7248 5.96917C57.7248 6.35449 58.0488 6.69602 58.6968 6.99377C58.837 7.06383 59.0384 7.16016 59.3011 7.28276C59.5638 7.40536 59.8616 7.55423 60.1943 7.72938C60.5446 7.88701 60.9124 8.09718 61.2978 8.3599C61.7006 8.60511 62.1297 8.93788 62.5851 9.35823C63.5133 10.234 63.9775 11.3899 63.9775 12.8261C63.9775 14.7002 63.4608 16.2327 62.4274 17.4237C61.3941 18.6147 59.8003 19.2277 57.646 19.2627C56.5951 19.2627 55.6405 19.1751 54.7823 19C53.9416 18.8249 53.206 18.4833 52.5755 17.9754C51.945 17.4675 51.6297 16.8545 51.6297 16.1364C51.6297 15.4183 51.7611 14.7089 52.0238 14.0083C52.2865 13.2903 52.5667 12.8174 52.8645 12.5897ZM65.6392 12.5897C65.972 12.8524 66.5412 13.2114 67.3468 13.6668C68.17 14.1222 68.9494 14.3499 69.685 14.3499C70.4382 14.3499 70.8147 14.0609 70.8147 13.4829C70.8147 13.2202 70.7096 12.9925 70.4995 12.7998C70.2893 12.5897 69.904 12.3532 69.3435 12.0905C68.783 11.8278 68.3627 11.6264 68.0825 11.4863C67.8022 11.3286 67.4257 11.0834 66.9528 10.7506C66.4974 10.4003 66.1471 10.0413 65.9019 9.6735C65.2013 8.67517 64.851 7.40536 64.851 5.86408C64.851 4.3228 65.4202 3.02672 66.5587 1.97585C67.7146 0.907457 69.2209 0.373262 71.0774 0.373262C72.3385 0.373262 73.5032 0.513379 74.5716 0.793612C75.64 1.05633 76.1917 1.40662 76.2267 1.84449C76.2267 1.89703 76.2267 1.94957 76.2267 2.00212C76.2267 2.61513 76.0341 3.39452 75.6487 4.34031C75.2634 5.26858 74.992 5.78526 74.8343 5.89035C73.7134 5.31237 72.7063 5.02338 71.8131 5.02338C70.9373 5.02338 70.4995 5.33864 70.4995 5.96917C70.4995 6.35449 70.8235 6.69602 71.4715 6.99377C71.6116 7.06383 71.8131 7.16016 72.0758 7.28276C72.3385 7.40536 72.6362 7.55423 72.969 7.72938C73.3193 7.88701 73.6871 8.09718 74.0724 8.3599C74.4753 8.60511 74.9044 8.93788 75.3598 9.35823C76.288 10.234 76.7522 11.3899 76.7522 12.8261C76.7522 14.7002 76.2355 16.2327 75.2021 17.4237C74.1688 18.6147 72.5749 19.2277 70.4206 19.2627C69.3698 19.2627 68.4152 19.1751 67.557 19C66.7163 18.8249 65.9807 18.4833 65.3502 17.9754C64.7197 17.4675 64.4044 16.8545 64.4044 16.1364C64.4044 15.4183 64.5358 14.7089 64.7985 14.0083C65.0612 13.2903 65.3414 12.8174 65.6392 12.5897ZM4.7966 33.7214C4.7966 33.9337 4.16634 34.0398 2.90583 34.0398C1.63204 34.0398 0.995146 33.9403 0.995146 33.7413V20.7646C0.995146 20.3002 1.24061 20.068 1.73155 20.068H5.53301C9.02265 20.068 10.7675 21.428 10.7675 24.1481C10.7675 24.9707 10.6083 25.7204 10.2898 26.3971C9.97136 27.0605 9.52023 27.5913 8.93641 27.9893L11.4442 32.1689C11.338 32.4874 10.993 32.8523 10.4092 33.2636C9.61311 33.8341 8.95631 34.1194 8.43884 34.1194C7.92136 34.1194 7.53657 33.9337 7.28447 33.5621L5.41359 29.2034H4.7966V33.7214ZM4.7966 23.5908V26.5762H4.89612C6.15663 26.5762 6.78689 26.0521 6.78689 25.0039C6.78689 24.5262 6.66084 24.1746 6.40874 23.949C6.1699 23.7102 5.77184 23.5908 5.21456 23.5908H4.7966ZM18.5066 25.601C18.7587 25.601 18.8848 26.0654 18.8848 26.9942C18.8848 27.2728 18.8516 27.6045 18.7852 27.9893C18.7322 28.3608 18.626 28.5466 18.4668 28.5466H15.9391V30.5369H19.6013C19.8268 30.5369 19.9794 30.8288 20.059 31.4126C20.0988 31.6647 20.1187 31.9367 20.1187 32.2286C20.1187 32.5073 20.0789 32.8722 19.9993 33.3233C19.9197 33.7744 19.787 34 19.6013 34H12.7945C12.2903 34 12.0382 33.7943 12.0382 33.383V20.5854C12.0382 20.2405 12.1907 20.068 12.4959 20.068H19.6212C19.8998 20.068 20.0391 20.6584 20.0391 21.8393C20.0391 23.007 19.8998 23.5908 19.6212 23.5908H15.9391V25.601H18.5066ZM20.9579 32.8257V20.4461C20.9579 20.1675 21.628 20.0282 22.9681 20.0282C24.3215 20.0282 24.9982 20.1675 24.9982 20.4461V30.1985H28.0633C28.3021 30.1985 28.468 30.5104 28.5608 31.134C28.6006 31.4392 28.6205 31.751 28.6205 32.0694C28.6205 32.3879 28.6006 32.7129 28.5608 33.0447C28.4547 33.6816 28.2822 34 28.0434 34H21.9133C21.6214 34 21.3892 33.8806 21.2167 33.6417C21.0442 33.4029 20.9579 33.1309 20.9579 32.8257ZM31.5178 30.5767V23.4913H30.1047C29.8791 23.4913 29.7199 23.206 29.627 22.6354C29.5872 22.3568 29.5673 22.0715 29.5673 21.7796C29.5673 21.4877 29.5872 21.2024 29.627 20.9238C29.7199 20.3532 29.8791 20.068 30.1047 20.068H36.7921C37.0177 20.068 37.1702 20.3532 37.2499 20.9238C37.3029 21.2024 37.3295 21.4877 37.3295 21.7796C37.3295 22.0715 37.3029 22.3568 37.2499 22.6354C37.1702 23.206 37.0177 23.4913 36.7921 23.4913H35.4586V30.5767H36.8518C37.0774 30.5767 37.2366 30.862 37.3295 31.4325C37.3825 31.7112 37.4091 31.9964 37.4091 32.2883C37.4091 32.5803 37.3825 32.8655 37.3295 33.1442C37.2366 33.7147 37.0774 34 36.8518 34H30.1445C29.919 34 29.7664 33.7147 29.6867 33.1442C29.6337 32.8655 29.6071 32.5803 29.6071 32.2883C29.6071 31.9964 29.6337 31.7112 29.6867 31.4325C29.7664 30.862 29.919 30.5767 30.1445 30.5767H31.5178ZM44.7077 25.601C44.9598 25.601 45.0859 26.0654 45.0859 26.9942C45.0859 27.2728 45.0527 27.6045 44.9863 27.9893C44.9333 28.3608 44.8271 28.5466 44.6679 28.5466H42.1402V30.5369H45.8024C46.0279 30.5369 46.1805 30.8288 46.2601 31.4126C46.2999 31.6647 46.3198 31.9367 46.3198 32.2286C46.3198 32.5073 46.28 32.8722 46.2004 33.3233C46.1208 33.7744 45.9881 34 45.8024 34H38.9956C38.4914 34 38.2392 33.7943 38.2392 33.383V20.5854C38.2392 20.2405 38.3918 20.068 38.697 20.068H45.8223C46.1009 20.068 46.2402 20.6584 46.2402 21.8393C46.2402 23.007 46.1009 23.5908 45.8223 23.5908H42.1402V25.601H44.7077ZM46.3828 20.3267C46.3828 20.2604 46.6681 20.2006 47.2386 20.1476C47.8224 20.0812 48.3001 20.0481 48.6716 20.0481C50.1445 20.0481 50.914 20.2405 50.9804 20.6252L52.692 29.3825L54.3042 20.6252C54.3838 20.2405 55.2064 20.0481 56.7721 20.0481C57.1569 20.0481 57.6412 20.0746 58.225 20.1277C58.8089 20.1807 59.1008 20.2405 59.1008 20.3068L55.5779 33.4825C55.5249 33.6948 55.1335 33.8341 54.4037 33.9005C53.2758 34.0199 52.2475 34.0464 51.3187 33.9801C50.4032 33.9005 49.9189 33.7678 49.8658 33.582L46.3828 20.3267ZM65.8903 25.601C66.1424 25.601 66.2685 26.0654 66.2685 26.9942C66.2685 27.2728 66.2353 27.6045 66.1689 27.9893C66.1159 28.3608 66.0097 28.5466 65.8505 28.5466H63.3228V30.5369H66.985C67.2105 30.5369 67.3631 30.8288 67.4427 31.4126C67.4825 31.6647 67.5024 31.9367 67.5024 32.2286C67.5024 32.5073 67.4626 32.8722 67.383 33.3233C67.3034 33.7744 67.1707 34 66.985 34H60.1782C59.674 34 59.4219 33.7943 59.4219 33.383V20.5854C59.4219 20.2405 59.5744 20.068 59.8796 20.068H67.0049C67.2835 20.068 67.4228 20.6584 67.4228 21.8393C67.4228 23.007 67.2835 23.5908 67.0049 23.5908H63.3228V25.601H65.8903ZM72.1431 33.7214C72.1431 33.9337 71.5128 34.0398 70.2523 34.0398C68.9785 34.0398 68.3416 33.9403 68.3416 33.7413V20.7646C68.3416 20.3002 68.5871 20.068 69.078 20.068H72.8795C76.3691 20.068 78.114 21.428 78.114 24.1481C78.114 24.9707 77.9547 25.7204 77.6363 26.3971C77.3178 27.0605 76.8667 27.5913 76.2829 27.9893L78.7907 32.1689C78.6845 32.4874 78.3395 32.8523 77.7557 33.2636C76.9596 33.8341 76.3028 34.1194 75.7853 34.1194C75.2678 34.1194 74.8831 33.9337 74.6309 33.5621L72.7601 29.2034H72.1431V33.7214ZM72.1431 23.5908V26.5762H72.2426C73.5031 26.5762 74.1334 26.0521 74.1334 25.0039C74.1334 24.5262 74.0073 24.1746 73.7552 23.949C73.5164 23.7102 73.1183 23.5908 72.561 23.5908H72.1431Z" fill="#D7D7D7"/>
</svg>
